<?xml version="1.0" encoding="UTF-8" standalone="no"?>
<svg
   version="1.1"
   class="marks"
   width="1145.4296"
   height="164.4097"
   viewBox="0 0 1145.4296 164.4097"
   id="svg82083"
   sodipodi:docname="investorzilla.svg"
   inkscape:version="1.3.2 (091e20e, 2023-11-25)"
   xmlns:inkscape="http://www.inkscape.org/namespaces/inkscape"
   xmlns:sodipodi="http://sodipodi.sourceforge.net/DTD/sodipodi-0.dtd"
   xmlns="http://www.w3.org/2000/svg"
   xmlns:svg="http://www.w3.org/2000/svg"
   xmlns:rdf="http://www.w3.org/1999/02/22-rdf-syntax-ns#"
   xmlns:cc="http://creativecommons.org/ns#"
   xmlns:dc="http://purl.org/dc/elements/1.1/">
  <title>Investorzilla logo</title>
  <sodipodi:namedview
     id="namedview82083"
     pagecolor="#ffffff"
     bordercolor="#000000"
     borderopacity="0.25"
     inkscape:showpageshadow="2"
     inkscape:pageopacity="0.0"
     inkscape:pagecheckerboard="0"
     inkscape:deskcolor="#d1d1d1"
     inkscape:zoom="0.52651133"
     inkscape:cx="534.65136"
     inkscape:cy="170.93649"
     inkscape:window-width="1592"
     inkscape:window-height="735"
     inkscape:window-x="0"
     inkscape:window-y="25"
     inkscape:window-maximized="0"
     inkscape:current-layer="svg82083" />
  <path
     d="M 25.64485,0 20.831951,30.387448 H 61.650912 L 66.463811,0 Z M 19.431182,39.231556 0,161.91521 H 40.818961 L 60.250143,39.231556 Z m 57.82673,0 L 57.82673,161.91521 H 98.645687 L 111.46811,80.957605 q 1.22119,-7.710248 4.02766,-11.111828 2.80648,-3.40158 8.24901,-3.40158 5.44253,0 7.17149,3.40158 1.72897,3.40158 0.50778,11.111828 l -12.82242,80.957605 h 40.81896 l 14.6542,-92.522977 q 1.58035,-9.977969 0.0915,-16.327585 -1.48881,-6.349616 -5.18689,-10.20474 -3.69807,-3.855124 -9.37864,-5.215756 -5.41788,-1.587404 -12.22104,-1.587404 -21.77011,0 -32.5805,18.14176 h -0.45355 l 2.37053,-14.966952 z m 109.077438,0 9.59563,122.683654 h 48.07567 L 293.37173,39.231556 h -42.17959 l -25.31037,88.214304 h -0.45354 l 2.40639,-88.214304 z m 167.05127,40.592189 -0.86201,5.442528 h -22.45042 l 0.86201,-5.442528 q 1.54444,-9.751196 4.5305,-14.286636 3.21283,-4.535441 9.56244,-4.535441 6.57639,0 8.12577,4.535441 1.77615,4.53544 0.23171,14.286636 z M 326.5543,107.48993 h 60.54812 l 1.97545,-12.472461 q 2.65787,-16.781128 1.243,-27.892956 -1.15217,-11.338601 -6.42428,-18.141761 -5.00941,-7.029932 -13.84014,-9.977968 -8.60396,-2.948036 -20.84964,-2.948036 -13.8331,0 -24.38574,3.628352 -10.28995,3.40158 -17.86076,11.111828 -7.57079,7.710248 -12.45836,19.955937 -4.88756,12.245688 -7.6891,29.933905 -2.76562,17.46144 -2.21065,29.70713 0.78174,12.24569 5.68339,19.95593 4.93759,7.48348 14.3768,10.88506 9.47513,3.17481 24.21531,3.17481 25.39846,0 38.30615,-11.3386 12.9436,-11.56537 16.98886,-34.24257 h -36.73706 q -1.97545,12.47246 -5.8686,17.0079 -3.63046,4.30866 -9.07299,4.30866 -4.30866,0 -7.20741,-3.1748 -2.86282,-3.40158 -1.28246,-13.37955 z m 100.82218,16.32758 H 391.5465 q -3.19663,20.18271 6.29893,30.38745 9.72233,10.20474 35.34757,10.20474 11.56537,0 21.06726,-2.72127 9.72865,-2.72126 16.71351,-8.16379 7.21162,-5.44253 11.79847,-12.926 4.58685,-7.48348 6.02353,-16.55436 1.86769,-11.79214 -1.55431,-18.82207 -3.15932,-7.256705 -9.0892,-11.338601 -5.89396,-4.308668 -13.24504,-6.576388 -7.12431,-2.26772 -13.37743,-4.308668 -6.25314,-2.040948 -10.39349,-4.53544 -3.87766,-2.721264 -3.05157,-7.93702 0.71834,-4.53544 4.06147,-7.029932 3.34312,-2.494493 7.87856,-2.494493 5.21576,0 7.4701,2.948037 2.51703,2.721264 1.25993,10.658284 h 35.37643 q 6.10592,-38.551241 -39.9288,-38.551241 -12.47246,0 -22.23703,2.948036 -9.53781,2.948036 -16.48674,8.163792 -6.72217,5.215756 -10.78364,12.245688 -4.02555,6.803161 -5.31857,14.966953 -1.83178,11.565372 1.32755,18.822076 3.422,7.029927 9.31597,11.338597 5.89396,4.30867 12.98234,6.80316 7.31517,2.49449 13.53238,4.76221 6.21722,2.26772 10.05897,5.21576 4.06852,2.94803 3.2065,8.39056 -0.79017,4.98899 -4.84954,7.71025 -3.83258,2.72126 -8.59479,2.72126 -5.6693,0 -7.93491,-4.30866 -1.26416,-2.04095 -1.44162,-5.21576 -0.17748,-3.17481 0.39719,-6.80316 z m 79.16084,-84.585954 -4.34598,27.439413 h 13.60632 L 505.45352,131.9813 q -1.61627,10.20474 -0.80777,16.55436 1.07119,6.12284 4.65024,9.29765 3.80583,3.17481 10.23855,4.0819 6.46864,0.68031 15.76629,0.68031 5.21576,0 10.95689,-0.45354 5.70522,-0.22677 11.37452,-0.22677 l 4.31006,-27.21264 h -6.34962 q -4.98898,0 -7.16023,-2.04095 -1.90855,-2.26772 -1.08245,-7.48348 l 9.26662,-58.507171 h 16.10082 l 4.34598,-27.439413 H 560.9626 l 5.71083,-36.0567479 h -40.81896 l -5.71083,36.0567479 z m 106.6006,61.455214 q 1.83177,-11.565373 3.47058,-19.048849 1.63882,-7.483476 3.68187,-11.792144 2.04306,-4.308668 4.33543,-5.896072 2.51914,-1.587404 5.92072,-1.587404 3.40158,0 5.41788,1.587404 2.0163,1.587404 2.46773,5.896072 0.67821,4.308668 -0.0535,11.792144 -0.73172,7.483476 -2.56349,19.048849 -1.83178,11.56537 -3.47059,19.04884 -1.60289,7.25671 -3.64595,11.56538 -1.81628,4.30866 -4.33542,5.89607 -2.51914,1.5874 -5.92072,1.5874 -3.40158,0 -5.41788,-1.5874 -1.78953,-1.58741 -2.46774,-5.89607 -0.6782,-4.30867 0.0176,-11.56538 0.73172,-7.48347 2.5635,-19.04884 z m 63.49616,0 q 2.11911,-13.379549 2.36349,-24.944921 0.50705,-11.792144 -3.30793,-20.636253 -3.81499,-8.844108 -13.45633,-13.833092 -9.60541,-5.215756 -27.5204,-5.215756 -17.23467,0 -28.56412,5.6693 -11.06675,5.442528 -17.94596,14.513408 -6.87921,9.070881 -10.52517,20.636253 -3.41917,11.565372 -5.32278,23.584281 -2.11911,13.37955 -2.62618,25.1717 -0.24437,11.56537 3.57062,20.40948 3.85091,8.61733 13.49224,13.60632 9.67725,4.76221 27.59224,4.76221 17.23467,0 28.2655,-5.21576 11.29353,-5.44253 18.13682,-14.28663 6.87922,-9.07088 10.2984,-20.63626 3.64595,-11.56537 5.54956,-23.58428 z M 697.93299,39.231556 678.50181,161.91521 h 40.81896 l 10.59556,-66.897741 q 1.93953,-12.245688 8.58986,-17.0079 6.8771,-4.762212 17.76216,-4.762212 2.49449,0 4.95306,0.226772 2.45858,0.226772 5.10801,0.680316 l 6.03408,-38.097697 h -6.57639 q -9.07088,0 -17.4882,5.896072 -8.38141,5.6693 -13.54293,16.781128 h -0.45354 l 3.08888,-19.502392 z m 78.00943,0 -5.0284,31.748081 h 41.95282 l -53.36815,59.187493 -5.0284,31.74808 h 94.33715 l 5.0284,-31.74808 h -46.9418 l 55.39782,-60.548125 4.8129,-30.387449 z M 886.47127,0 l -4.8129,30.387448 h 40.81896 L 927.29023,0 Z M 880.2576,39.231556 860.82642,161.91521 h 40.81896 L 921.07656,39.231556 Z M 944.97829,0 919.33344,161.91521 H 960.1524 L 985.79725,0 Z m 58.50711,0 -25.64488,161.91521 h 40.81898 L 1044.3043,0 Z m 80.4723,137.6506 q -4.5355,0 -6.682,-3.62835 -2.1466,-3.62835 -1.1769,-9.7512 0.9698,-6.12284 3.3587,-9.75119 2.4246,-3.85513 7.5461,-6.12285 4.8587,-2.04094 8.5589,-2.49449 3.9629,-0.68031 6.1721,-3.17481 h 0.4535 l -2.3346,14.74018 q -1.6162,10.20474 -5.3544,15.19373 -3.7383,4.98898 -10.5414,4.98898 z m 11.3506,24.26461 h 39.4583 q -1.7403,-4.76222 -1.379,-11.3386 0.3613,-6.57639 1.7262,-15.19373 l 9.4821,-59.867803 q 1.9036,-12.018916 -0.5395,-19.502393 -2.1803,-7.710248 -8.0743,-12.018916 -5.6313,-4.53544 -14.4507,-6.122844 -8.5568,-1.814176 -19.2151,-1.814176 -7.0299,0 -15.4451,1.587404 -8.3793,1.360632 -16.1277,5.896072 -7.7123,4.308668 -13.7675,12.47246 -6.0193,7.937021 -8.1384,21.316569 h 35.3764 q 1.7712,-9.751196 4.9952,-12.926004 3.2601,-3.401581 9.1562,-3.401581 10.4315,0 8.6356,11.338601 -0.8979,5.6693 -4.122,8.844108 -3.1881,2.948036 -10.016,4.53544 l -16.7114,3.855124 q -10.1103,2.26772 -17.2255,5.6693 -7.0792,3.174808 -11.6886,7.937019 -4.5735,4.53544 -7.3933,10.88505 -2.5931,6.34962 -3.9579,14.96696 -1.2571,7.93702 -0.4846,14.5134 0.7726,6.57639 4.1002,11.3386 3.3276,4.76222 9.3181,7.02994 6.1813,2.49449 15.479,2.49449 9.5244,0 17.4276,-4.0819 8.13,-4.08189 12.8246,-12.24569 h 0.4535 q -0.1571,3.85513 -0.2422,7.25671 -0.085,3.40158 0.5458,6.57639 z"
     id="text"
     style="font-weight:900;font-stretch:condensed;font-size:226.772px;line-height:1;font-family:'Helvetica Neue';-inkscape-font-specification:'Helvetica Neue Heavy Condensed';text-align:center;letter-spacing:0px;text-anchor:middle;stroke-linecap:square;stroke-miterlimit:14.3;stroke-opacity:0.933333"
     aria-label="investorzilla" />
  <path
     d="m 6.000001,158.98976 v -0.57106 -0.009 h 0.61773 v 0 0 0 0.0535 -0.0357 l 5.77133,-0.43721 1.00015,0.21415 v 0 -0.0268 -0.57997 -1.84256 l 1.08837,-0.0223 h 1.47078 v 0 0 0 l 1.52961,0.009 2.85331,-0.0179 0.58832,-0.30338 h 0.9707 v -0.32567 l 2.52977,-0.004 h 1.47077 v 0 0 0 l 5.23304,1.19119 2.44149,-0.0222 1.08837,-0.004 v -0.0179 -0.004 h 0.64716 v 0 0 0 0.0267 l 0.6177,-0.009 5.28894,-0.0178 v -0.004 l 0.61772,-0.20968 v 0.0223 -0.009 0.004 l 0.61774,-0.004 0.61773,-0.0312 v -1.67749 -2.83298 -0.0759 0 -0.45059 0.12045 0 0.004 -0.0669 l 0.58831,0.0133 0.61773,0.009 0.61772,-0.0133 v 0 0 0.15168 -0.0625 0.0759 -0.0535 -0.0581 0.0803 -0.004 l 0.61772,-0.0669 0.58832,0.004 2.4415,0.10267 0.58831,-0.0714 v 0.0759 l 0.61772,-0.0714 0.61773,-0.0133 0.61773,0.29892 v 0.009 -0.15615 -0.41045 0 0 0.0402 0.0357 l 0.64714,0.0133 1.00014,0.0581 v -0.0535 l 0.61771,0.0535 0.61774,-0.60229 v 0.62013 -0.0357 -0.0357 -0.004 -4.27401 0 0 0 0 l 0.58831,0.009 v -0.0268 l 0.61772,-1.31167 0.58833,0.0581 1.61786,-0.0446 2.64739,0.0357 v -0.2186 -0.24537 -0.36138 -1.66857 -0.0535 l 0.5883,-0.009 v -0.0312 l 0.61775,0.0357 v -0.0535 l 0.61772,0.0179 v -0.004 l 0.64714,-0.009 v 3.51558 1.24472 -0.0581 -0.79411 l 0.91187,0.0312 v 0 0 0 0 l 0.61775,-0.009 v 0.0268 -0.0402 l 2.76505,-0.0223 1.76495,-0.004 v -10.34152 -0.14722 0.0446 0 0 0.004 l 0.58832,2.84192 0.79421,-0.0179 2.32383,-0.0268 0.61774,-0.0133 v 0 0 0 0 0.0402 l 0.7648,-0.0133 1.08837,-0.0267 2.08852,-0.009 v -0.009 l 2.38266,-0.0402 1.61787,-0.0803 v 0 -0.004 0 0 0 6.04073 -0.0491 -0.0402 1.57935 0.6692 l 0.58831,-0.009 h 0.61771 v 0 0 0 0.12047 0.0133 l 0.61775,-0.0892 0.6177,-0.004 4.02994,-0.0535 v 0.004 l 0.61775,0.009 v -0.0267 0 -0.0357 -0.0223 l 0.5883,-0.0224 v -0.0179 l 1.94144,-0.009 v 0 0 0 0 0.0802 l 3.80343,3.24345 0.61773,-0.36584 v 0.0357 l 1.29429,-0.004 0.94128,-0.004 h 3.094529 v 0 0 0 0.0581 -4.26064 l 0.61775,-0.14276 2.70622,-3.58251 1.61785,-0.0357 v 0 -0.0178 0.0133 0.35692 -0.0178 0 0 0 0 0 l 0.58831,-0.009 0.61773,-0.0223 0.5883,1.50349 0.61774,-0.0312 h 2.23559 v 0 0 0 l 0.61773,-0.23645 v 0.0625 0.0312 -0.0268 l 7.03327,-0.009 v -2.41362 l 0.61773,-0.16508 v 1.36073 l 0.61773,-0.0624 0.61773,-1.67748 v -1.65518 -0.32122 -0.0222 0 0 0 0 l 0.61773,0.0268 0.79422,-0.009 2.20618,0.24536 v -0.29444 -1.20011 -0.12047 3.16314 l 0.61772,0.009 v -0.009 l 4.38882,-0.004 h 0.61771 v 0 0 0 l 0.58831,0.51752 1.00015,-2.81068 0.61771,-1.76671 3.84756,-0.0446 v 0.004 -0.0402 -0.0268 l 0.61775,-0.0937 0.61771,-0.004 1.00012,-0.0133 0.61775,-0.0446 0.61772,0.009 h 1.08838 v 0 0 0 l 1.20603,0.0535 3.22689,-0.0178 v -0.004 -0.0357 -0.36136 l 1.00014,-0.0178 v -0.0446 l 0.61773,-0.009 h 1.02956 v 0.26322 l 0.5883,-0.0178 v -0.0446 1.65072 0.17846 0.66028 l 0.61772,-0.0714 h 0.61773 0.61771 v 0 0 0 0.11598 l 0.58833,-0.0446 2.55916,-0.16507 v -0.0224 0 10.40844 l 3.2269,-0.004 0.58831,-0.004 v -1.99424 l 0.61772,-0.004 1.20604,-0.0312 v -0.0268 l 0.58831,-0.0267 v 0 0 0 0 0 0 l 1.20604,-1.72209 v -3.46205 0 1.40535 h 6.15963 l 1.29429,-0.0133 v -0.0133 h 0.61772 v 0 0 0 l 0.58831,0.0133 h 1.1472 l 4.20638,-0.0357 v -0.0937 -0.004 -0.0179 0.009 -0.0759 -0.44167 -0.24985 0 0 0.004 0 0 l 0.61784,-0.004 1.61781,-0.0222 0.61766,-0.58444 v 0.43722 -0.004 0.56215 -1.60612 0 0 0 0 0.18293 l 0.91189,-0.21415 4.65355,-0.004 v -0.0357 -0.79859 -0.0133 l 1.00013,-0.009 v -0.0179 -0.009 l 1.61799,-1.80687 v 2.10578 -0.0847 l 0.61765,0.009 h 0.58831 v 0 0 0 0.0446 l 1.11772,-0.0625 1.20615,0.009 1.58845,1.45442 1.08837,-0.009 0.61766,0.009 0.58833,-0.0178 0.61781,0.34353 v -0.7986 -0.12938 0 0 l 0.58831,0.009 v -0.0937 0 0.8432 0.0268 0.59782 l 0.61766,-0.0312 0.58833,-0.009 1.02949,-0.0133 h 0.79431 v 0 0 0 0.0224 l 0.58832,1.8738 v 0.55767 l 0.61765,-0.009 3.32402,-0.71828 h 3.22681 v 0 -0.009 -0.004 l 1.00013,-0.0266 v -0.0446 h 1.00015 v 0 0 0 0.0759 l 0.61782,0.20076 v -0.058 l 0.76479,-0.10707 0.9119,0.0223 1.02948,0.004 0.58832,0.004 0.61768,-0.0892 v 0.0179 l 0.82367,-0.0892 0.58829,0.0223 v -0.0178 -0.0179 -0.67367 l 1.00013,-0.0133 0.7648,-0.61567 0.61782,0.0178 0.61768,-0.0178 v 0 -0.57552 -0.0133 0 0 0 0 0.0803 l 1.11772,3.42634 1.61798,-0.004 v -0.004 3.66727 h 2.08851 1.61781 l 0.61766,0.0179 0.61784,-0.0179 h 1.7649 v 0 0 0 0.004 l 1.52959,0.0178 h 3.36215 v 0 0 l 0.85319,-0.0178 3.39151,-0.009 h 0.61783 v 0 0.009 l 1.11774,0.0133 h 3.67099 v -0.78967 -0.0133 l 0.58831,-0.0178 v 0 0.18739 -6.61625 0.42829 -0.14277 0.009 0 0 l 0.61782,0.0133 v -0.16507 l 2.02965,-0.0178 h 0.61766 v 0 0 0 0.0803 -0.0268 l 1.14726,-0.0178 4.70646,-0.0402 v -0.009 -1.44995 -0.25876 h 3.62405 v 0 0 0 0.0759 0.6692 -0.0133 -0.0581 -0.0892 -0.0803 -8.30711 -0.0133 l 2.76506,-0.0491 v -0.004 1.53471 l 1.08837,-0.0625 0.76479,0.0357 v -0.0357 l 0.76478,0.0312 0.79431,-0.009 v -0.0312 l 1.52957,1.08859 v -0.0312 -1.39195 3.4665 h 0.82366 v 0 0 0 l 0.79414,0.0446 v -0.14722 -0.0133 0.29445 0 1.26704 -0.009 1.69087 l 0.5883,0.009 0.85318,-0.009 2.02965,0.009 0.61766,-0.009 h 1.08837 v 0 0 0.65136 3.31928 0.0133 0 l 0.61783,-0.0133 1.26487,0.009 v -0.009 l 0.61765,0.009 0.79431,-0.0133 h 0.58831 v 0 0 0 l 0.61765,0.0892 v -0.0178 -0.10707 0.004 -0.0222 0.004 0.0446 -0.13832 l 0.61769,-0.0223 2.23563,-0.41937 0.76479,0.009 0.5883,1.33842 v 0 -0.32569 l 0.61784,-0.0133 v -0.0312 h 1.00013 v 0 0 -9.94 -0.009 -0.0224 0.0224 -0.12492 -0.27214 0 0 0 -0.009 0 0 6.48241 l 0.5883,-0.0266 1.00014,-0.004 v 0 0 0 0 0.0535 0.0178 l 2.85331,-0.009 0.94125,-0.66028 v 0.24538 -0.0803 l 1.32374,-0.0267 2.38258,-0.0133 v 0.009 -0.009 -0.0133 h 1.58845 v 0 0 0 0.0223 l 4.25647,-0.0312 3.53865,-0.0224 1.76492,0.0179 v 0 0 0 l 3.19463,-0.0133 2.99445,-0.0133 v -0.8209 -3.08729 -5.74182 -0.33459 l 1.73556,-0.009 v -0.10255 l 1.26485,1.02611 v 0.2097 0.0625 -0.009 0 0 0 0 0.0581 l 0.70591,0.009 h 2.82394 v -0.14278 1.08859 l 2.38276,-0.0133 v -0.0178 l 1.00013,-0.009 1.4707,-0.46398 0.9119,-0.0982 v -0.13385 2.11025 0.0535 -0.0847 8.48558 0 0 0 0 0 0 0 0 0 0 0.0266 l 5.34784,-0.0581 v 0.009 0.0312 -0.0179 h 3.671 v 0 0.0133 l 3.66816,-0.22753 v 0.38815 -1.12874 0.0446 l 2.8533,-0.0179 0.5883,-0.009 1.14726,-0.004 1.32357,0.0133 v 0 0 0 0 0.0491 l 0.9119,-0.0133 0.61784,-0.1383 0.61766,0.0178 1.61779,-0.0133 2.02982,0.009 0.61765,-0.009 v 0.6469 0.6023 -0.009 0.009 -0.009 l 0.61768,0.009 0.58831,-0.004 v 0.15614 h 1.64732 v 0 0.0535 l 1.08838,-0.009 v 1.10196 l 3.19447,-0.52644 2.11803,-0.009 v -0.0133 -0.0268 l 0.58831,-0.0312 1.20597,-0.0357 0.58831,-0.0133 0.61784,-0.004 v -0.009 -0.009 0 0 0 0 0.0535 l 1.52955,-0.0179 0.58832,-0.0178 4.20639,0.0223 v -0.1963 -0.0133 l 0.61765,0.0178 v 0.11599 l 0.58848,-0.0625 v 0.0312 l 0.61767,-0.12492 v 0.0268 0.004 l 0.61766,-0.0491 v 0.009 -0.0179 0 0 0 0 0.0803 l 1.32374,-0.0759 3.80932,-0.009 1.76492,-0.0179 v 0.0133 l 0.61784,-0.0312 0.61765,-0.0714 v 3.00699 -0.0312 -0.0446 l 0.61767,-0.009 0.85302,-0.0401 v 0 0 0 0 0.0937 l 2.58859,-1.61504 v 0.95475 l 3.224,-0.11599 0.61783,0.004 v 0.009 l 0.5883,0.009 1.97076,-1.75779 v -0.009 0.20522 -3.64496 h 0.9119 v 0 0 0 0.0402 h 1.0295 v 0.009 l 0.61782,-0.0268 3.71512,-0.67812 v 0 0 l 2.55922,-0.1963 v -0.0222 l 0.61768,-0.004 0.7943,0.004 v -0.17399 -0.19631 1.12872 0 0 0.10267 l 0.58831,0.0133 v -0.0223 l 4.25349,0.0446 v -0.14723 l 0.79414,-0.15168 v -0.12046 l 0.61766,-0.0178 v 0.0357 0.004 0.0133 l 0.61784,0.0224 0.79413,-0.0357 v 0.004 -2.8999 l 0.76495,-0.009 v 0 0 0 0 0.16061 -0.38814 -0.16061 -0.58444 l 0.58832,-0.0179 0.61766,0.009 0.61766,0.0133 v -0.0178 l 2.64746,-0.009 0.9708,-0.004 0.61765,-0.0669 v 0 -3.60926 l 0.61767,-0.0133 2.38276,-0.0133 h 1.08836 v 0 0 0 0.0669 l 2.7062,-0.0714 0.9119,-0.009 v 2.79283 0.25877 l 1.32371,-0.24091 2.41212,-0.009 h 2.02964 v 0 0 0 0.009 l 1.00014,-0.004 5.12129,-0.009 3.09446,-0.004 0.61766,-0.009 v 0 0 0 0 0.009 l 0.61783,-0.009 0.61767,-0.0491 3.22399,-0.0222 v 0 0 0 0.0133 l 0.61767,0.009 v -0.009 l 0.61783,-0.004 0.61767,-0.0312 v 0 -0.009 l 0.58831,-0.004 1.02949,-0.0222 1.00014,-0.009 0.58832,-0.0535 v 0 0 0 0 0.0759 -0.0222 0.0446 -0.0581 -0.26768 -0.14722 l 0.61781,0.0267 v 1.01721 -3.40851 l 0.79416,-0.009 v -0.0446 l 2.20627,-0.0223 0.58831,0.0179 0.61766,0.0357 v -0.009 2.69022 -0.0446 l 0.61767,0.0133 v -0.0402 0.0268 l 1.26485,-0.4283 1.41197,-0.0223 0.61783,2.26192 v 0 0 0 0 0.009 l 0.94126,0.0267 0.61767,-0.0222 v 0.0133 -0.009 h 0.94142 l 1.26484,-0.004 v -4.3454 l 0.91191,-0.19629 v 0.0178 -0.99935 0 0 h 0.8235 v 0 0 0 0 0.18292 l 0.61783,0.0267 v -0.0224 0.0133 l 0.61766,-0.0178 1.14726,0.24091 v 0.78075 -0.009 l 0.61766,0.0133 v -0.0133 0 0 0 0 0.0222 -1.32949 0.0222 l 0.61784,-0.0222 0.61766,-0.0179 0.5883,0.0133 v -0.0224 -0.0223 l 2.99445,-0.0133 v -0.0312 l 2.44164,-0.009 0.79413,-0.0133 0.61767,-1.0172 v -1.2358 -0.50414 0 h 0.58832 v 0 0.0357 h 1.97092 l 1.58844,-0.0937 h 0.61767 l 0.76494,-0.78967 h 3.35917 l 0.61767,-0.16953 v 0.10708 1.86931 l 0.58829,-0.004 v 0 0 0.004 l 7.34515,-0.0402 1.52957,-0.009 h 0.76494 v 0 0 0 0.0223 h 3.25916 l 4.34174,-0.009 0.58832,-0.0491 h 1.58843 v 0 0 0 0 0 l 1.70621,-0.0223 4.12092,-0.0178 v -0.0268 -0.009 l 0.58831,-0.004 v 0.009 l 0.61783,0.0133 v -0.13831 l 0.61766,-0.009 1.32375,-0.47738 v 0.86105 -0.28999 -0.009 -0.0446 -4.25172 h 0.61766 v 0 0 0 0.10267 l 0.61782,0.0133 0.97061,-0.0402 1.70623,-0.004 1.73556,-0.54875 0.91172,-0.009 v -0.009 l 0.58832,0.009 1.17661,-0.004 0.79431,0.004 0.61767,1.05735 v -0.0178 l 0.5883,-0.232 v -0.65583 -0.0178 0 0 0 0 0.009 l 1.29438,-0.009 1.64733,-0.0357 2.20611,-0.004 0.79414,-0.009 v -0.0133 -0.0179 0.009 h 0.7943 v 0 0 -0.59336 l 2.44147,-0.009 v 0 0 0 0 0.0402 l 0.61767,-13.20573 v -2.56529 -0.0491 -0.0491 -0.009 l 0.61782,-0.40151 2.44147,-0.0268 1.6178,0.004 v -0.17399 0.17845 0.95921 l 0.61784,-2.32885 v 0 0.10266 0 0 0 0 -0.004 -0.0491 l 2.64729,-0.0892 h 0.58831 v 0 0 0 0.0892 l 1.32373,-0.10267 h 0.9119 v -0.7852 l 0.61767,-0.0223 0.61784,-14.231864 0.5883,-0.0446 v -0.009 l 0.58831,-0.0402 v -1.18226 0 l 0.61766,1.0529 1.08839,-1.8515 v -1.21795 1.09304 -0.0714 -0.0179 l 0.61782,-0.0223 v -0.0222 l 0.79415,-0.0669 0.61765,-0.0312 0.61784,-0.12492 v -0.3123 -0.0133 -0.0535 -0.0357 0 0 0 0 0.19185 -0.009 -0.0179 0.0223 -0.0178 0.0178 l 0.79413,-0.0133 v -0.0179 -0.0178 -0.0357 l 2.08852,-0.11599 v -0.0625 l 0.58832,0.0133 0.61782,-0.0133 v -0.0133 -0.0133 0.0133 l 0.61766,-0.009 1.32375,0.049 v 1.78902 l 1.11772,-0.0268 v -0.0357 h 0.61784 v 0 0 0 0.0625 l 1.11773,0.009 4.07403,0.11154 0.61784,-0.12047 v 0 -0.0133 l 0.91173,0.0223 0.61783,0.0133 v -0.0178 l 1.47068,-0.0491 0.58831,0.0133 h 0.61782 v 0 0 0 0.0402 l 0.61768,-0.009 v 0.0535 l 0.61783,-0.0535 v -3.62711 l 0.64703,-0.0402 0.58829,-0.0714 0.58831,-0.0223 0.61784,-0.009 0.82365,-0.0446 0.61767,-0.009 v -0.16507 -0.009 -9.83291 -0.009 -0.0446 l 0.61767,-0.009 v -0.0267 0.0178 l 0.5883,-0.0223 v -0.0714 0.0222 -0.0357 l 0.61783,0.0446 v 0.004 0 0.004 -0.0133 0.4729 2.99359 -0.23645 -0.0937 l 0.61767,0.058 0.61767,-0.058 v 0 0 0 0 0.20077 -0.0133 l 0.61783,0.009 v -0.0312 l 1.26485,-0.0133 v 0.0535 -0.0178 h 0.79414 v -1.70426 l 0.61782,0.0402 v -0.0222 l 0.73543,-0.0446 0.58832,-0.0535 v -0.94136 -0.0581 0.009 l 0.61766,-0.0625 0.61766,-0.009 0.61784,-0.0223 0.61766,-0.0312 v 0 0 0 -1.18673 l 0.5883,-0.22308 v 0.39261 -0.0446 0.57553 0.19183 5.46076 0.64244 0 -0.0357 0.004 0.0133 1.67301 -0.009 0.0179 -0.0714 0.0714 -0.0491 l 0.61783,0.0133 v 0 0 0 0 0.12492 0.009 l 0.61768,-0.058 h 1.00014 l 2.82392,-0.0446 v -0.009 l 0.97063,2.23515 v 0.20969 0.47738 0 0.37475 -0.38368 l 2.02964,-0.0268 v -0.39261 -0.20522 -6.2995 -0.009 h 0.97077 v -0.33015 -0.0133 0 0 0 0 0.0669 l 0.61767,-0.0491 v 0.58889 -0.009 0.009 l 1.44149,-0.049 0.61766,-0.004 1.26486,-2.45378 v 1.36519 l 0.5883,0.0133 1.02951,-0.0133 0.58847,-0.32123 v -0.61566 0 0 0 -0.41937 -0.004 0.004 0.0178 0.0267 -0.0133 l 0.61766,-0.0178 v 0.0178 -0.009 l 0.64719,-0.0357 v -0.66922 -0.0224 0.0224 0.0178 -0.33013 -0.0179 l 0.61767,-0.004 v -0.49074 -0.0491 0 0 0 0 0.0669 0 -0.0133 0 -0.009 l 1.00015,-0.004 1.02948,-0.0223 0.5883,-0.0133 v 0 l 0.61783,-0.15616 0.61768,0.009 1.79427,-0.0178 v -0.10708 0.009 l 0.61783,0.009 v -0.009 l 1.17661,-0.0133 0.61767,0.004 v -0.058 -0.0133 0 0 0 0 0.116 l 0.61783,-0.88783 v -0.009 l 0.61767,0.97258 v -0.009 -0.0133 -0.0178 -0.004 l 0.82367,0.004 1.02948,0.009 v 0.004 0.0357 l 0.61784,-0.0402 h 0.61766 v -0.77182 0 0.10708 1.33841 1.02165 2.43593 l 0.58831,0.009 v -0.0222 -0.0133 0.0133 l 0.61767,0.0266 0.58829,-0.0133 v -0.0357 l 1.02968,-0.009 h 1.00015 v 0 0 0 0.0402 -0.0133 0.0133 l 1.38243,-0.009 2.67683,-0.0535 1.02949,-0.0446 v -0.0178 l 1.08838,-0.009 0.61782,-0.0268 v 0.004 0.009 -0.0312 l 0.58831,-0.0357 v 0.0179 l 0.61768,-0.0179 v -0.009 0.009 -0.009 0 0 0 0 0.0981 0.0133 -0.0357 1.44548 0.0133 -0.0133 -0.0133 l 0.61782,-0.0133 v 0.0312 l 0.61767,-0.0223 0.61766,-0.0133 1.61798,0.009 0.79413,-0.009 0.61783,-0.009 v -0.0133 0 -0.4729 -0.009 l 0.61767,-0.009 v -0.058 -0.0267 -0.14723 l 0.61765,-0.0491 1.26487,-0.0133 0.61784,0.0133 0.61765,-0.0491 v 0.009 l 0.61784,-0.0312 v 0 0 0 0 0.21415 l 0.61766,-0.0267 v -0.004 -0.0133 -0.31676 -0.10256 -0.19629 -0.0581 2.34224 0.009 -0.009 l 1.26485,-0.0312 v -0.0179 l 0.61767,0.004 0.82366,-0.004 v -0.0402 l 2.23563,-0.009 0.61767,-0.0133 1.17661,-0.14723 0.61784,0.0268 h 1.26484 v 0 0 0 0.11599 h 0.61767 l 0.61783,-0.0446 0.61767,-0.0178 v -0.81642 -0.009 l 2.82394,-0.0535 1.26485,-0.004 0.61767,-0.89228 v -0.0312 l 0.61782,-1.6195 v -0.59335 l 1.29421,-0.009 v 0.0357 -2.19056 l 0.58831,-0.86103 v -1.34289 h 1.08838 v 0 0 0 0.0625 l 2.85329,-0.0133 0.61784,-0.0402 v -0.0446 -0.0312 -0.0446 l 0.79414,-0.004 1.9414,-0.0268 v -0.14277 l 1.08837,-0.0312 0.9119,-1.1912 h 0.76479 v 0 0 0 0.0847 -0.0268 -0.004 0.0133 0.004 0 l 0.9119,-0.0133 0.61784,1.03504 v 0.59783 -0.0847 -0.058 l 3.35917,-0.16954 v 0 0 -0.0133 -0.17845 0 -0.0759 -0.76737 l 0.61783,0.009 v -0.009 0.009 l 0.79413,-0.0402 v 0.0357 -0.0357 -0.009 -0.0223 0 0 0.61568 -0.61568 -1.48118 l 0.58831,0.009 0.61765,0.0178 0.61784,-0.0133 v 0.004 0 0 0 0 0.0446 l 0.61767,-0.0312 v -0.004 0.23199 h 0.61784 v 0.76291 l 3.19446,-0.004 v 0 -0.16061 -0.0178 -0.98152 0.37923 -0.0268 -0.009 l 2.82395,-0.004 1.14708,-0.0581 h 0.61784 v 0 0 0 0.0669 -0.0223 l 0.76479,-0.058 v -0.009 l 5.28896,0.0491 0.61766,-0.0535 v 0.004 l 0.58831,-0.0179 v 0.0223 l 1.00014,-0.0178 h 1.14725 v 0 0 0 -0.0357 l 0.61766,0.009 0.61768,0.0179 v -0.10267 l 0.76496,-0.0312 3.85343,0.0133 v -0.0581 l 0.61766,-0.0714 0.5883,0.0312 v -0.0847 -0.009 l 0.58831,-0.0268 v 0.0133 -0.0178 -1.56148 0.0312 0.0759 -0.0179 0.89675 -0.0222 0.009 l 0.61766,0.009 v 0 0 0 0 0.116 l 0.61783,-0.0178 v 0.0133 l 0.58832,0.0357 v -1.44995 -0.0178 l 0.61766,-0.009 0.61783,-0.0446 1.76491,0.0223 v -0.0179 l 0.58831,-0.0357 0.61768,0.0357 v -0.0312 l 0.61782,0.0535 0.58831,-0.0446 v 0.0402 -0.0446 l 0.61767,-0.0357 v -0.009 l 0.61765,0.009 v -0.009 0.0802 0.0402 l 0.61784,-0.0357 v 0.009 0.69596 -0.29444 -0.31677 0.0669 0 0.0312 0 0 0.0847 l 0.61767,-0.0267 0.82366,-0.12047 2.8533,-0.0133 0.79414,-0.76735 1.58844,-3.03822 v 0.21415 0.0625 l 1.76508,1.08857 v -0.0223 0.0312 -0.48183 -0.0222 l 0.76479,-3.21221 h 0.61766 v 0 0 l 0.61767,-0.20522 3.98596,-0.0714 0.76479,-0.41492 v 0.004 h 0.76477 v 0 0 l 0.82366,-0.0223 1.58845,-0.58444 v 0.0669 0.0491 4.32756 2.77946 -4.04203 -0.004 h 0.73526 v 0 0.12046 l 0.61784,-0.26323 1.20597,-0.0491 1.61797,0.0312 1.70604,0.0802 v -0.009 l 0.61767,-0.004 0.61783,-0.0178 0.61766,0.0581 0.61767,0.0402 0.58829,-0.0312 h 2.23565 v 0 0.0133 l 4.29463,8.50789 v 0.0312 0.99489 0.009 -0.14277 11.22042 l 1.32372,-0.009 v -0.009 0.0133 l 0.61784,-0.009 0.61766,0.004 h 2.20611 v 0 0 h 9.61312 v 0 0.004 0 l 0.9119,-0.0447 0.61766,-0.009 1.32374,-0.009 v -0.0178 l 0.94126,-2.17271 v -0.0267 -0.13384 -0.0892 0 -0.0402 -0.0581 0 0 -0.50413 l 0.7943,-0.0133 0.5883,-2.4047 v 0.38815 -0.22753 l 2.76508,-2.97129 h 0.9119 v 0 0.0581 -1.01719 l 0.9119,0.0222 2.41193,-0.009 1.61798,0.0133 1.76491,-0.0222 0.58832,-0.19631 v 1.47226 0.0847 3.82787 1.86488 -0.0179 l 1.26485,-0.13831 v 0.33015 0.009 -0.004 h 0.61766 v 0 0.004 l 0.9119,0.009 1.14726,0.004 1.64733,-0.0133 0.58831,0.0402 1.20597,-0.0357 0.58831,-0.0222 v 0.0268 -0.20522 1.34287 -0.51752 -0.0222 0.0133 l 0.61766,0.0312 v -1.03059 l 1.61797,0.009 0.58831,-0.67365 v -0.0535 0 0 0 0 -0.20076 l 0.61767,-0.3123 v -0.11153 -0.004 l 0.5883,0.0535 v -0.0624 l 0.61784,-0.0223 2.58841,-1.04396 1.26502,-0.0222 v -0.0178 -0.0223 h 3.80634 v 0 0 0 0.0491 l 0.61766,-0.0402 v 4.81385 0 l 5.34485,0.92351 v 0.0133 l 0.9119,-0.0133 0.61766,-0.75398 v 0 -0.13384 0 0 0 0 -0.59783 0.0133 l 1.00015,0.0267 0.58831,0.0222 0.79431,-0.12938 v -0.28553 -0.0267 0 0 0.0581 0.0357 -0.0133 l 0.79414,0.009 3.80632,-0.0402 0.61783,-0.0312 v -0.0491 0.0133 l 2.23565,-0.004 0.5883,-0.0133 v -0.0178 h 0.58831 v 0 0 0 0.0802 -0.0178 l 4.07403,-0.0357 v -0.0133 l 1.00013,-0.009 1.41198,-0.004 1.47068,-0.0267 h 1.64733 v 0 0 0 0.0133 l 1.97075,-0.009 v -0.0268 l 0.79431,-0.009 1.00015,0.0446 0.58831,0.004 v 0.0133 l 0.61766,0.0268 v -0.0759 -16.27518 -0.0847 0.0402 -0.0312 -0.009 -0.009 -0.009 l 0.61783,0.0133 0.61766,-0.31675 v -0.009 -0.0446 0.0446 -0.0178 0 0 0 0 10.36829 -10.36829 0 0 0 -0.19631 l 0.79414,-0.009 h 0.61784 v 0 0 0 0.0759 l 0.61765,3.84126 v 0.009 l 0.6472,-0.0222 v -0.0892 -0.37475 l 3.32401,-0.0312 h 1.32356 v -0.49075 h 1.41198 v 0 0 -0.3257 -0.0178 l 0.61782,0.009 v -0.10707 l 0.61767,0.0178 v -1.1555 -2.24408 -0.009 l 0.58831,-0.0133 v 0 0 0 0 0.0402 l 0.58831,0.009 v -0.0491 -0.0223 0.0133 -0.0133 5.43844 l 2.02964,-0.50861 1.11789,0.009 0.58831,-1.6418 v -0.0133 -0.13385 l 1.0295,0.009 0.61766,-0.0223 h 0.61782 v 0 -5.82212 -0.23645 0.18738 l 0.82368,-0.009 v -0.0223 l 0.61766,-0.0224 h 0.61767 v 0 0 0 0.10707 l 0.61782,0.009 1.00014,-0.0581 1.02951,-0.0402 v 0.009 l 1.61779,-0.009 v 1.86041 0.43274 0 -0.0535 h 5.28598 v 0 0 0 0.11599 l 0.76494,-0.18737 v -0.0133 l 0.61767,0.35691 v 0.0133 l 5.12128,-0.0178 v -0.0402 -0.77182 0 -0.12047 -0.39706 l 1.00013,-0.009 v 0.009 l 1.02951,-0.004 h 0.7943 v 0 0 0 0.18736 l 0.8235,10.04707 0.61783,0.24092 3.671,0.14276 0.9119,-0.0133 0.61782,-0.009 v -0.0312 l 0.8235,-0.0179 1.26486,0.0179 h 1.05902 v 0 0 0 0.0178 l 1.11773,-0.009 0.61782,0.004 1.00015,-0.0759 2.02964,-0.009 0.94124,-0.009 0.61784,0.009 h 3.46798 v 0 0 0 0.0446 l 0.79431,-0.0179 v 0.009 l 1.47069,0.004 1.17676,0.0179 1.47071,-0.0312 v 0.0268 -0.0446 0.0401 -0.0357 0.009 0 0 -0.91013 0 -0.0222 2.64115 -0.0133 l 0.5883,-1.37412 0.61783,0.0133 v -0.009 l 0.61766,0.0133 0.79414,-0.0133 0.61783,1.07075 h 0.61767 v 0 -0.004 l 0.61783,0.0222 1.41181,0.009 0.61783,-0.0179 2.2355,0.009 1.6179,-0.009 1.0002,-0.0267 0.6176,0.004 v -0.009 h 1.5296 v 0 0 0 0.004 -0.009 0.70936 -0.37476 l 0.6178,-0.009 0.6177,0.0133 1.5884,-0.004 1.7649,-0.009 1.5885,-0.009 v 0.0402 -0.0402 0.57106 -0.47736 2.80176 l 0.6178,-0.009 v 0 0 l 8.8981,-0.12046 h 0.7944 v 0 h 0.6176 v 0 0 0 0.10707 -0.0179 l 0.5883,-0.0892 3.7153,5.22429 v -1.13766 l 2.2061,-0.009 v -0.0312 l 2.0003,0.0178 0.6176,-0.0178 v -0.0268 -0.73167 h 0.6178 v 0 0 0 0.009 l 0.6473,-0.009 2.8238,0.004 1.412,-1.11982 v 0 0 3.78772 l 0.6176,-0.0625 v -0.0312 -0.0357 0.009 -0.009 -1.84702 -1.5481 -0.0892 -0.009 -0.004 l 0.5885,-0.058 0.6176,-8.51681 1.5885,-0.0357 h 0.6177 v 0 0 0 0.32123 -0.10707 -0.12493 0 -0.20968 -2.67237 l 0.8236,-0.0491 v -0.009 l 1.9414,2.38684 0.9119,0.009 1.7649,-0.009 0.6178,-0.0357 3.2268,-0.0535 v 0 0 0 0 0.0357 l 0.6177,0.0179 v -0.0179 l 0.765,-0.004 3.0621,0.009 4.3386,0.23646 h 0.7649 v 0 0 0 -0.0937 l 1.7061,-0.0402 0.6178,-0.0312 0.5882,0.009 0.618,0.0222 0.6176,0.009 v 0.009 l 0.7941,0.0178 v -0.0133 0.0535 -0.0581 -0.009 l 0.6179,-0.0178 0.6176,-0.18291 v 0 0 0.0266 -0.004 l 0.6178,0.004 v 0.004 l 1.1471,0.009 v 0 0.009 0.009 0.0133 -0.0625 1.5258 15.71749 -0.29444 0.009 -0.009 0 0 0 0 0.0222 l 1.0297,-0.36138 2.5001,0.009 0.618,-0.009 1,0.009 v -0.009 l 1.9709,-1.26258 v -0.0267 l 2.0884,-0.0312 h 0.6179 v 0 0 0 0.0223 l 4.1181,-0.009 h 4.5124 1 v 0 0.004 l 5.4567,-1.45888 v -0.82536 0 1.3875 h 0.6179 v 0 -1.48118 l 0.5883,-0.7183 2.2353,-0.0267 v 0.009 h 0.6179 v 0 0 0 0.009 l 0.6176,-0.004 1.0001,-0.86996 0.5883,0.009 1.6474,0.009 v 0 -0.0178 l 0.7941,0.0178 v -0.71381 -0.50414 -0.65137 0 0 0.0179 l 0.5883,-0.0133 v 0 -3.71188 3.77434 0 0 0 0 0 -1.65965 -0.71381 2.27085 -0.0357 -0.0847 l 0.6178,-0.009 0.7942,0.0133 0.6176,-0.0357 0.7944,-3.73418 v -0.009 0.0178 0 0 0.009 -0.24982 -0.37478 0.65137 0.44169 0 2.77499 l 5.9126,0.0178 0.6177,0.0669 v -0.0714 h 2.8239 v 0 0.004 l 0.61765,-0.009 0.6176,-0.004 0.5884,-0.54876 4.9066,-0.0357 1.765,0.0357 0.7941,-0.0312 v -0.009 h 0.6178 v 0 0 0 0.009 -0.18737 0 -0.0402 -0.0268 0.0268 -0.004 l 1.0003,-0.0266 0.6177,0.0446 1.0294,-0.009 0.853,0.0178 h 0.5883 v -0.0402 l 1.471,-0.44169 0.6175,-0.0133 2.9417,0.004 v -0.0402 -0.116 l 1.0884,0.0803 v -0.0803 0.0803 l 1.7648,-0.0581 0.7942,-0.0802 0.5884,0.0802 0.6179,-0.0802 2.1471,-5.11724 1.7063,-0.0402 0.5883,0.0714 v 0 -0.0669 l 1.1177,-1.34734 0.6176,0.009 2.0298,-0.52645 v 0.59337 0.0491 h 0.6178 v -0.0133 l 0.7646,-9.42246 v 0 -0.0581 l 0.7648,0.60676 0.6179,0.058 0.5883,-0.0491 1.1178,-0.004 v 0 0 l 1.1177,-0.009 h 0.5883 l 0.6472,0.0491 0.6472,0.0535 v 0.0581 0.36136 -0.0266 -0.0446 l 2.824,0.0446 0.6176,-0.0446 0.8531,-0.0178 0.6178,0.004 0.5883,0.009 v -0.009 -2.96236 -0.38368 l 0.6176,0.0446 v -0.0446 -0.009 l 0.9118,-1.42318 1.2356,0.0133 1.1177,-0.009 3.3241,-0.62906 v 0.0179 l 0.6176,0.0446 0.8236,-0.009 0.6177,-0.0446 0.8237,0.0133 0.6178,0.0133 v 0.004 0.0268 l 0.6178,3.42636 v -0.6826 -0.24537 -0.0446 0 0 -0.0312 l 0.7939,-0.009 0.618,0.004 0.6176,0.004 v 0.0312 l 0.6178,-0.0581 0.5884,-0.009 2.4415,0.0133 0.6177,-0.058 0.8236,0.0133 0.6176,0.0357 0.8531,0.009 v 0.0268 l 1.2649,-0.0312 0.6177,-0.0133 v 0.0133 l 0.7648,0.009 v 0 l 0.7649,0.0312 v 0.0133 l 1,-0.0267 v 3.61819 -3.39958 1.86486 l 0.7943,0.0267 0.7942,0.009 1.0295,-0.0357 v 0.0268 l 0.7943,-0.0179 1.6178,-0.0535 2.1475,0.0625 v -0.0446 0.0312 l 1.0001,0.009 v -0.0759 l 0.6176,-0.0223 2.4415,-0.0133 1.2943,-1.68194 v -0.16692 l 1.7061,-0.0402 2.2356,-1.26703 v 0.62905 -0.55766 0.004 l 0.5883,-0.0268 1.0295,0.0357 2.4121,-0.0222 0.618,-0.0268 v -0.0581 h 1.2058 v 0 0 0 0 -0.62906 h 0.6177 v -0.59782 -0.47738 l 1.1473,-0.0178 1.0001,-0.0133 0.6177,0.0268 v -0.0223 0.0267 h 0.6178 l 0.7647,-0.0178 v 0.60675 0.49522 -0.40153 -2.35115 0.0133 l 1.4708,-0.009 5.842,-0.009 v -0.009 -0.17399 l 1.2649,-0.004 h 3.7622 v -0.38815 -0.46399 -0.77181 l 1.5296,-0.004 1.0001,0.009 0.6177,-0.009 h 1.0884 v 0.009 -0.009 l 0.6178,-0.004 0.5883,-2.35116 v -0.32122 -0.0133 -0.15169 0.004 l 4.7976,0.009 0.6177,-0.0222 v 0 0 0 0 -0.3257 l 0.6179,-0.116 v -0.0491 h 1.1471 v -0.3346 h 1.118 v 0.2989 h 1.7354 l 1.4707,2.89546 2.3827,-9.86415 v 0.98595 h 5.8449"
     id="rate-of-return"
     style="fill:none;stroke:#8376c9;stroke-width:12;stroke-linejoin:round;stroke-miterlimit:10;stroke-dasharray:none;stroke-opacity:1"
     />
  <metadata>
    <rdf:RDF>
      <cc:Work
         rdf:about="">
        <dc:title>Investorzilla logo</dc:title>
        <dc:date>2025-09-21</dc:date>
        <dc:creator>
          <cc:Agent>
            <dc:title>Avi Alkalay</dc:title>
          </cc:Agent>
        </dc:creator>
        <dc:description>Contains “investorzilla” word in heaviest Helvetica, horizontally skewed by -8°, with a investment return line on top of it</dc:description>
        <cc:license
           rdf:resource="http://creativecommons.org/licenses/by-nc/4.0/" />
      </cc:Work>
      <cc:License
         rdf:about="http://creativecommons.org/licenses/by-nc/4.0/">
        <cc:permits
           rdf:resource="http://creativecommons.org/ns#Reproduction" />
        <cc:permits
           rdf:resource="http://creativecommons.org/ns#Distribution" />
        <cc:requires
           rdf:resource="http://creativecommons.org/ns#Notice" />
        <cc:requires
           rdf:resource="http://creativecommons.org/ns#Attribution" />
        <cc:prohibits
           rdf:resource="http://creativecommons.org/ns#CommercialUse" />
        <cc:permits
           rdf:resource="http://creativecommons.org/ns#DerivativeWorks" />
      </cc:License>
    </rdf:RDF>
  </metadata>
</svg>
